<?xml version="1.0" encoding="utf-8"?>
<!-- Generator: Adobe Illustrator 16.0.0, SVG Export Plug-In . SVG Version: 6.00 Build 0)  -->
<!DOCTYPE svg PUBLIC "-//W3C//DTD SVG 1.1//EN" "http://www.w3.org/Graphics/SVG/1.1/DTD/svg11.dtd">
<svg version="1.1" id="logo" xmlns="http://www.w3.org/2000/svg" xmlns:xlink="http://www.w3.org/1999/xlink" x="0px" y="0px"
	 width="387.979px" height="110.551px" viewBox="0 0 387.979 110.551" enable-background="new 0 0 387.979 110.551"
	 xml:space="preserve">
<g>
	<polygon points="93.641,6.656 82.685,27.106 71.728,6.656 69.732,6.656 69.732,37.708 71.772,37.708 71.772,10.736 82.685,31.01 
		93.598,10.736 93.598,37.708 95.636,37.708 95.636,6.656 	"/>
	<rect x="115.993" y="6.657" width="2.04" height="31.051"/>
	<polygon points="162.299,6.656 151.344,27.106 140.387,6.656 138.391,6.656 138.391,37.708 140.43,37.708 140.43,10.736 
		151.344,31.01 162.256,10.736 162.256,37.708 164.297,37.708 164.297,6.656 	"/>
	<rect x="184.651" y="6.657" width="2.04" height="31.051"/>
	<polygon points="227.321,6.656 227.321,33.938 209,6.656 207.049,6.656 207.049,37.708 209.09,37.708 209.09,10.427 
		227.453,37.708 229.362,37.708 229.362,6.656 	"/>
	<path d="M271.986,6.656v21.07c0,6.611-4.17,10.424-11.18,10.424c-6.965,0-11.135-3.813-11.135-10.424V6.656h2.041v21.07
		c0,5.413,3.371,8.607,9.094,8.607c5.767,0,9.137-3.195,9.137-8.607V6.656H271.986z"/>
	<polygon points="316.249,6.656 305.292,27.106 294.336,6.656 292.34,6.656 292.34,37.708 294.38,37.708 294.38,10.736 
		305.292,31.01 316.205,10.736 316.205,37.708 318.245,37.708 318.245,6.656 	"/>
	<polygon points="47.09,66.604 47.09,81.005 48.036,81.005 48.036,74.522 54.558,74.522 54.558,73.681 48.036,73.681 48.036,67.427 
		55.587,67.427 55.587,66.604 	"/>
	<path d="M57.547,70.614h0.906v10.39h-0.906V70.614z M57.547,66.313h0.906v1.976h-0.906V66.313z"/>
	<rect x="61.951" y="65.779" width="0.906" height="15.226"/>
	<path d="M66.356,70.614h0.906v10.39h-0.906V70.614z M66.356,66.313h0.906v1.976h-0.906V66.313z"/>
	<path d="M78.168,74.132c0-1.871-1.214-2.941-3.168-2.941c-2.14,0-3.333,1.255-3.333,3.106v3.025c0,1.851,1.193,3.105,3.333,3.105
		c1.954,0,3.168-1.069,3.168-2.941V74.132z M79.073,77.424c0,2.429-1.461,3.787-3.972,3.787c-1.542,0-2.756-0.536-3.435-1.523v5.432
		h-0.905V70.614h0.72l0.123,1.462c0.679-1.07,1.914-1.668,3.519-1.668c2.488,0,3.95,1.358,3.95,3.785V77.424z"/>
	<polygon points="100.005,68.494 94.945,77.897 89.884,68.494 89.884,81.004 88.936,81.004 88.936,66.602 89.863,66.602 
		94.945,76.086 100.027,66.602 100.951,66.602 100.951,81.004 100.005,81.004 	"/>
	<path d="M104.437,70.614h0.907v10.39h-0.907V70.614z M104.437,66.313h0.907v1.976h-0.907V66.313z"/>
	<path d="M108.842,70.614h0.721l0.122,1.543c0.886-1.46,2.655-1.995,4.363-1.585v0.824c-2.489-0.533-4.3,0.699-4.3,2.737v6.87
		h-0.905V70.614z"/>
	<path d="M123.722,74.132c0-1.871-1.214-2.941-3.168-2.941c-2.038,0-3.333,1.152-3.333,3.106v3.025c0,1.954,1.295,3.105,3.333,3.105
		c1.954,0,3.168-1.069,3.168-2.941V74.132z M124.627,77.424c0,2.429-1.462,3.787-3.972,3.787c-1.604,0-2.818-0.558-3.498-1.626
		l-0.123,1.419h-0.72V65.779h0.906v6.193c0.679-1.008,1.893-1.563,3.456-1.563c2.488,0,3.951,1.358,3.951,3.786V77.424z"/>
	<path d="M131.36,80.429c1.955,0,3.333-0.824,3.333-2.325c0-1.481-1.378-2.326-3.333-2.326s-3.167,0.701-3.167,2.326
		C128.193,79.749,129.406,80.429,131.36,80.429 M131.217,75.059c1.543,0,2.777,0.411,3.476,1.275v-2.429
		c0-1.851-1.172-2.757-3.024-2.757c-1.892,0-2.963,0.721-2.963,2.49h-0.904c0-2.243,1.418-3.229,3.867-3.229
		c2.408,0,3.929,1.15,3.929,3.537v7.057h-0.719l-0.103-1.232c-0.679,0.944-1.934,1.44-3.559,1.44c-2.471,0-3.93-0.948-3.93-3.088
		C127.286,76.005,128.746,75.059,131.217,75.059"/>
	<path d="M147.352,81.004h-0.72l-0.124-1.419c-0.68,1.09-1.934,1.624-3.518,1.624c-2.49,0-3.95-1.132-3.95-3.62v-6.975h0.904v7.015
		c0,1.956,1.214,2.799,3.169,2.799c1.954,0,3.332-0.987,3.332-2.941v-6.871h0.907V81.004z"/>
	<path d="M151.514,75.243h6.501v-1.111c0-1.935-1.297-2.941-3.251-2.941c-1.975,0-3.25,1.008-3.25,2.941V75.243L151.514,75.243z
		 M158.92,77.877c-0.062,2.057-1.584,3.332-4.094,3.332c-2.633,0-4.218-1.378-4.218-3.826v-3.189c0-2.49,1.646-3.785,4.156-3.785
		c2.489,0,4.155,1.295,4.155,3.785v1.831h-7.406v1.421c0,1.852,1.171,2.984,3.312,2.984c1.996,0,3.147-1.008,3.189-2.551h0.904
		V77.877z"/>
	<path d="M162.177,70.614h0.72l0.123,1.543c0.886-1.46,2.655-1.995,4.362-1.585v0.824c-2.49-0.533-4.299,0.699-4.299,2.737v6.87
		h-0.906V70.614z"/>
	<path d="M184.611,74.216h-3.785c-2.223,0-3.663,1.171-3.663,3.147c0,1.936,1.193,3.003,3.539,3.003
		c2.366,0,3.909-1.479,3.909-3.332V74.216z M188.026,74.216h-2.468v6.788h-0.741l-0.146-1.831c-0.761,1.233-2.242,2.036-4.155,2.036
		c-2.858,0-4.32-1.46-4.32-3.764c0-1.874,1.008-3.106,2.695-3.642c-1.605-0.515-2.489-1.79-2.489-3.559
		c0-2.407,1.645-3.849,4.567-3.849c2.942,0,4.589,1.46,4.589,3.766v0.35h-0.947v-0.268c0-1.873-1.297-3.025-3.622-3.025
		c-2.325,0-3.62,1.152-3.62,3.088c0,1.789,1.255,3.064,3.498,3.064h7.16V74.216L188.026,74.216z"/>
	<path d="M197.52,74.401h4.178c2.119,0,3.476-1.092,3.476-3.479c0-2.405-1.357-3.495-3.476-3.495h-4.178V74.401z M196.575,66.602
		h5.164c2.675,0,4.424,1.358,4.424,4.32c0,2.943-1.729,4.321-4.424,4.321h-4.218v5.761h-0.945L196.575,66.602L196.575,66.602z"/>
	<path d="M211.887,80.429c1.954,0,3.332-0.824,3.332-2.325c0-1.481-1.378-2.326-3.332-2.326c-1.955,0-3.168,0.701-3.168,2.326
		C208.719,79.749,209.932,80.429,211.887,80.429 M211.744,75.059c1.544,0,2.776,0.411,3.476,1.275v-2.429
		c0-1.851-1.172-2.757-3.024-2.757c-1.894,0-2.963,0.721-2.963,2.49h-0.904c0-2.243,1.42-3.229,3.867-3.229
		c2.408,0,3.929,1.15,3.929,3.537v7.057h-0.719l-0.104-1.232c-0.681,0.944-1.934,1.44-3.56,1.44c-2.471,0-3.93-0.948-3.93-3.088
		C207.814,76.005,209.273,75.059,211.744,75.059"/>
	<polygon points="222.798,81.004 218.456,70.614 219.423,70.614 223.352,80.018 227.282,70.614 228.186,70.614 223.867,81.004 	"/>
	<rect x="230.763" y="65.779" width="0.906" height="15.226"/>
	<path d="M238.626,80.429c1.954,0,3.334-0.824,3.334-2.325c0-1.481-1.38-2.326-3.334-2.326s-3.168,0.701-3.168,2.326
		C235.458,79.749,236.672,80.429,238.626,80.429 M238.483,75.059c1.544,0,2.777,0.411,3.477,1.275v-2.429
		c0-1.851-1.173-2.757-3.025-2.757c-1.892,0-2.962,0.721-2.962,2.49h-0.905c0-2.243,1.42-3.229,3.867-3.229
		c2.408,0,3.929,1.15,3.929,3.537v7.057h-0.72l-0.103-1.232c-0.68,0.944-1.935,1.44-3.56,1.44c-2.469,0-3.93-0.948-3.93-3.088
		C234.552,76.005,236.013,75.059,238.483,75.059"/>
	<path d="M253.86,80.16h5.061c2.058,0,3.106-1.028,3.106-2.962c0-1.935-1.049-2.982-3.086-2.982h-5.081V80.16z M253.86,73.371h4.711
		c2.078,0,3.106-1.028,3.106-2.962c0-1.935-1.07-2.982-3.106-2.982h-4.711V73.371z M252.914,66.602h5.801
		c2.531,0,3.93,1.276,3.93,3.745c0,1.688-0.679,2.84-1.955,3.396c1.503,0.453,2.326,1.625,2.326,3.518
		c0,2.468-1.4,3.744-3.951,3.744h-6.151L252.914,66.602L252.914,66.602z"/>
	<path d="M272.979,74.132c0-1.954-1.297-2.941-3.25-2.941c-1.956,0-3.251,0.987-3.251,2.941v3.354c0,1.954,1.296,2.941,3.23,2.941
		c1.975,0,3.271-0.987,3.271-2.941L272.979,74.132L272.979,74.132z M273.884,77.424c0,2.511-1.645,3.787-4.176,3.787
		c-2.488,0-4.135-1.276-4.135-3.787v-3.23c0-2.51,1.646-3.785,4.155-3.785c2.51,0,4.154,1.275,4.154,3.785L273.884,77.424
		L273.884,77.424z"/>
	<path d="M284.569,81.004v-7.016c0-1.954-1.215-2.8-3.169-2.8c-1.955,0-3.333,1.009-3.333,2.943v6.872h-0.906V65.779h0.906v6.132
		c0.7-0.989,1.912-1.502,3.456-1.502c2.428,0,3.951,1.132,3.951,3.62v6.975H284.569z"/>
	<path d="M291.962,69.071l2.283-3.292h0.947l-2.47,3.292H291.962z M292.393,80.429c1.954,0,3.333-0.824,3.333-2.325
		c0-1.481-1.379-2.326-3.333-2.326c-1.955,0-3.168,0.701-3.168,2.326C289.225,79.749,290.438,80.429,292.393,80.429 M292.25,75.059
		c1.543,0,2.777,0.411,3.477,1.275v-2.429c0-1.851-1.172-2.757-3.025-2.757c-1.892,0-2.962,0.721-2.962,2.49h-0.904
		c0-2.243,1.419-3.229,3.866-3.229c2.408,0,3.929,1.15,3.929,3.537v7.057h-0.719l-0.104-1.232c-0.679,0.944-1.934,1.44-3.559,1.44
		c-2.47,0-3.93-0.948-3.93-3.088C288.32,76.005,289.781,75.059,292.25,75.059"/>
	<path d="M301.142,65.779h0.864l1.935,2.613l1.954-2.613h0.823l-2.324,3.292h-0.905L301.142,65.779z M308.199,77.712v0.02
		c0,2.141-1.543,3.479-4.094,3.479c-2.653,0-4.218-1.4-4.218-3.828v-3.147c0-2.429,1.564-3.826,4.218-3.826
		c2.551,0,4.094,1.336,4.094,3.476v0.02h-0.904v-0.083c0-1.583-1.173-2.633-3.189-2.633c-2.099,0-3.313,1.111-3.313,2.982v3.251
		c0,1.895,1.214,3.005,3.313,3.005c2.017,0,3.189-1.05,3.189-2.634V77.71h0.904V77.712z"/>
	<path d="M318.452,74.132c0-1.954-1.298-2.941-3.251-2.941c-1.956,0-3.251,0.987-3.251,2.941v3.354c0,1.954,1.296,2.941,3.23,2.941
		c1.974,0,3.272-0.987,3.272-2.941L318.452,74.132L318.452,74.132z M319.355,77.424c0,2.511-1.646,3.787-4.176,3.787
		c-2.488,0-4.135-1.276-4.135-3.787v-3.23c0-2.51,1.646-3.785,4.155-3.785c2.51,0,4.154,1.275,4.154,3.785L319.355,77.424
		L319.355,77.424z"/>
	<polygon points="325.636,81.004 321.296,70.614 322.262,70.614 326.193,80.018 330.122,70.614 331.027,70.614 326.707,81.004 	"/>
	<path d="M336.218,69.071l2.283-3.292h0.947l-2.47,3.292H336.218z M336.649,80.429c1.954,0,3.334-0.824,3.334-2.325
		c0-1.481-1.38-2.326-3.334-2.326s-3.167,0.701-3.167,2.326C333.482,79.749,334.695,80.429,336.649,80.429 M336.506,75.059
		c1.544,0,2.778,0.411,3.477,1.275v-2.429c0-1.851-1.172-2.757-3.024-2.757c-1.893,0-2.963,0.721-2.963,2.49h-0.905
		c0-2.243,1.42-3.229,3.868-3.229c2.407,0,3.929,1.15,3.929,3.537v7.057h-0.721l-0.103-1.232c-0.679,0.944-1.935,1.44-3.559,1.44
		c-2.47,0-3.931-0.948-3.931-3.088C332.576,76.005,334.037,75.059,336.506,75.059"/>
</g>
</svg>
