<?xml version="1.0" encoding="utf-8"?>
<!-- Generator: Adobe Illustrator 16.0.0, SVG Export Plug-In . SVG Version: 6.00 Build 0)  -->
<!DOCTYPE svg PUBLIC "-//W3C//DTD SVG 1.1//EN" "http://www.w3.org/Graphics/SVG/1.1/DTD/svg11.dtd">
<svg version="1.1" id="Layer_1" xmlns="http://www.w3.org/2000/svg" xmlns:xlink="http://www.w3.org/1999/xlink" x="0px" y="0px"
	 width="89.084px" height="20px" viewBox="0 0 89.084 20" enable-background="new 0 0 89.084 20" xml:space="preserve">
<g>
	<path fill="#BDBFC1" d="M2.562,2.975H7.58c2.601,0,4.301,1.32,4.301,4.2c0,2.859-1.681,4.2-4.301,4.2H3.481v5.599H2.562V2.975z
		 M3.481,10.555h4.06c2.06,0,3.379-1.06,3.379-3.379c0-2.34-1.319-3.4-3.379-3.4h-4.06V10.555z"/>
	<path fill="#BDBFC1" d="M14.079,2.975h5.359c2.62,0,4.299,1.32,4.299,4.2c0,2.219-1.02,3.539-2.699,4l2.76,5.799h-1.061
		l-2.618-5.618c-0.221,0.02-0.441,0.02-0.681,0.02h-4.439v5.599h-0.92V2.975z M14.999,10.555h4.419c2.061,0,3.381-1.06,3.381-3.379
		c0-2.34-1.32-3.4-3.381-3.4h-4.419V10.555z"/>
	<path fill="#BDBFC1" d="M26.336,2.975h8.659v0.8h-7.739v5.78h6.74v0.819h-6.74v5.779h7.739v0.82h-8.659V2.975z"/>
	<path fill="#BDBFC1" d="M43.493,10.595l-2.819-0.54c-2.06-0.4-3.32-1.52-3.32-3.56c0-2.399,1.681-3.719,4.781-3.719
		c3.078,0,4.738,1.399,4.738,4.199v0.1h-0.919v-0.1c0-2.24-1.301-3.4-3.819-3.4c-2.541,0-3.82,1.041-3.82,2.86
		c0,1.58,0.959,2.459,2.56,2.759l2.818,0.541c2.101,0.42,3.32,1.52,3.32,3.559c0,2.561-1.819,3.88-4.919,3.88
		c-3.08,0-4.9-1.4-4.9-4.199v-0.101h0.92v0.101c0,2.239,1.439,3.379,3.98,3.379c2.56,0,3.959-0.999,3.959-3
		C46.053,11.774,45.093,10.914,43.493,10.595z"/>
	<path fill="#BDBFC1" d="M56.11,10.595l-2.819-0.54c-2.061-0.4-3.32-1.52-3.32-3.56c0-2.399,1.68-3.719,4.779-3.719
		c3.081,0,4.741,1.399,4.741,4.199v0.1h-0.922v-0.1c0-2.24-1.3-3.4-3.819-3.4c-2.539,0-3.819,1.041-3.819,2.86
		c0,1.58,0.961,2.459,2.56,2.759l2.82,0.541c2.1,0.42,3.32,1.52,3.32,3.559c0,2.561-1.821,3.88-4.921,3.88
		c-3.079,0-4.898-1.4-4.898-4.199v-0.101h0.92v0.101c0,2.239,1.439,3.379,3.979,3.379c2.56,0,3.96-0.999,3.96-3
		C58.67,11.774,57.71,10.914,56.11,10.595z"/>
	<path fill="#BDBFC1" d="M65.469,9.775l-2.021,2.14v5.059h-0.92V2.975h0.92v7.66l7.06-7.66h1.14l-5.579,6.08l6.039,7.919h-1.14
		L65.469,9.775z"/>
	<path fill="#BDBFC1" d="M73.547,2.975h0.92v13.999h-0.92V2.975z"/>
	<path fill="#BDBFC1" d="M76.226,2.975h10.818v0.8h-4.959v13.199h-0.92V3.775h-4.939V2.975z"/>
</g>
</svg>
